<svg xmlns="http://www.w3.org/2000/svg" xmlns:xlink="http://www.w3.org/1999/xlink" id="Layer_1" width="32" height="32" x="0" y="0" enable-background="new 0 0 32 32" version="1.1" viewBox="0 0 32 32" xml:space="preserve"><path fill="#217346" d="M16,32C7.178,32,0,24.821,0,16C0,7.177,7.178,0,16,0c8.821,0,16,7.177,16,16C32,24.821,24.821,32,16,32z"/><g><g><rect width="16" height="4" x="8" y="8" fill="#FFF"/></g><g><rect width="1" height="11" x="8" y="12" fill="#FFF"/></g><g><rect width="1" height="11" x="23" y="12" fill="#FFF"/></g><g><rect width="1" height="11" x="18" y="12" fill="#FFF"/></g><g><rect width="1" height="11" x="13" y="12" fill="#FFF"/></g><g><rect width="16" height="1" x="8" y="15" fill="#FFF"/></g><g><rect width="16" height="1" x="8" y="19" fill="#FFF"/></g><g><rect width="16" height="1" x="8" y="23" fill="#FFF"/></g></g></svg>