<svg xmlns="http://www.w3.org/2000/svg" xmlns:xlink="http://www.w3.org/1999/xlink" id="Layer_1" width="32" height="32" x="0" y="0" enable-background="new 0 0 32 32" version="1.1" viewBox="0 0 32 32" xml:space="preserve"><path fill="#FFF" d="M15.875,31.5c-8.547,0-15.5-6.954-15.5-15.5c0-8.547,6.953-15.5,15.5-15.5	c8.546,0,15.5,6.953,15.5,15.5C31.375,24.546,24.421,31.5,15.875,31.5z" opacity=".75"/><g><g><rect width="16" height="4" x="8" y="8" fill="#444"/></g><g><rect width="1" height="11" x="8" y="12" fill="#444"/></g><g><rect width="1" height="11" x="23" y="12" fill="#444"/></g><g><rect width="1" height="11" x="18" y="12" fill="#444"/></g><g><rect width="1" height="11" x="13" y="12" fill="#444"/></g><g><rect width="16" height="1" x="8" y="15" fill="#444"/></g><g><rect width="16" height="1" x="8" y="19" fill="#444"/></g><g><rect width="16" height="1" x="8" y="23" fill="#444"/></g></g><path fill="#B1B1B1" d="M15.875,1c8.271,0,15,6.729,15,15c0,8.271-6.729,15-15,15s-15-6.729-15-15C0.875,7.729,7.604,1,15.875,1 M15.875,0c-8.836,0-16,7.164-16,16c0,8.837,7.164,16,16,16c8.837,0,16-7.163,16-16C31.875,7.164,24.712,0,15.875,0L15.875,0z"/></svg>