<svg xmlns="http://www.w3.org/2000/svg" xmlns:xlink="http://www.w3.org/1999/xlink" id="Layer_1" width="34" height="34" x="0" y="0" enable-background="new 40.5 93.5 34 34" version="1.1" viewBox="40.5 93.5 34 34" xml:space="preserve"><path fill="#FFF" d="M57.5,126c-8.547,0-15.5-6.954-15.5-15.5	c0-8.547,6.953-15.5,15.5-15.5c8.546,0,15.5,6.953,15.5,15.5C73,119.046,66.046,126,57.5,126z" enable-background="new" opacity=".75"/><path fill="#217346" d="M49.5,102.5v4v3v1v3v1v3v1h16v-1v-3v-1v-3v-1v-3v-4H49.5z M59.5,106.5v3h-4v-3H59.5z M59.5,110.5v3h-4v-3	H59.5z M50.5,106.5h4v3h-4V106.5z M50.5,110.5h4v3h-4V110.5z M50.5,117.5v-3h4v3H50.5z M55.5,117.5v-3h4v3H55.5z M64.5,117.5h-4v-3	h4V117.5z M64.5,113.5h-4v-3h4V113.5z M64.5,109.5h-4v-3h4V109.5z"/><path fill="#439467" d="M57.5,95.5c8.271,0,15,6.729,15,15s-6.729,15-15,15s-15-6.729-15-15S49.229,95.5,57.5,95.5 M57.5,94.5	c-8.836,0-16,7.164-16,16c0,8.837,7.164,16,16,16c8.837,0,16-7.163,16-16C73.5,101.664,66.337,94.5,57.5,94.5L57.5,94.5z"/></svg>