<svg xmlns="http://www.w3.org/2000/svg" xmlns:xlink="http://www.w3.org/1999/xlink" id="Layer_1" width="34" height="34" x="0" y="0" enable-background="new 4.5 93.5 34 34" version="1.1" viewBox="4.5 93.5 34 34" xml:space="preserve"><g><path fill="#FFF" d="M21.5,126C12.953,126,6,119.046,6,110.5 C6,101.953,12.953,95,21.5,95c8.546,0,15.5,6.953,15.5,15.5C37,119.046,30.046,126,21.5,126z" enable-background="new" opacity=".75"/><path fill="#333" d="M13.5,102.5v4v3v1v3v1v3v1h16v-1v-3v-1v-3v-1v-3v-4H13.5z M23.5,106.5v3h-4v-3H23.5z M23.5,110.5v3h-4v-3 H23.5z M14.5,106.5h4v3h-4V106.5z M14.5,110.5h4v3h-4V110.5z M14.5,117.5v-3h4v3H14.5z M19.5,117.5v-3h4v3H19.5z M28.5,117.5h-4v-3 h4V117.5z M28.5,113.5h-4v-3h4V113.5z M28.5,109.5h-4v-3h4V109.5z"/><path fill="#B1B1B1" d="M21.5,95.5c8.271,0,15,6.729,15,15s-6.729,15-15,15s-15-6.729-15-15S13.229,95.5,21.5,95.5 M21.5,94.5 c-8.836,0-16,7.164-16,16c0,8.837,7.164,16,16,16c8.837,0,16-7.163,16-16C37.5,101.664,30.337,94.5,21.5,94.5L21.5,94.5z"/></g></svg>