<svg xmlns="http://www.w3.org/2000/svg" xmlns:xlink="http://www.w3.org/1999/xlink" id="Layer_1" width="34" height="34" x="0" y="0" enable-background="new 76.5 93.5 34 34" version="1.1" viewBox="76.5 93.5 34 34" xml:space="preserve"><g><path fill="#217346" d="M93.5,126c-8.547,0-15.5-6.954-15.5-15.5c0-8.547,6.953-15.5,15.5-15.5c8.546,0,15.5,6.953,15.5,15.5 C109,119.046,102.046,126,93.5,126z"/><path fill="#FFF" d="M85.5,102.5v4v3v1v3v1v3v1h16v-1v-3v-1v-3v-1v-3v-4H85.5z M95.5,106.5v3h-4v-3H95.5z M95.5,110.5v3h-4v-3 H95.5z M86.5,106.5h4v3h-4V106.5z M86.5,110.5h4v3h-4V110.5z M86.5,117.5v-3h4v3H86.5z M91.5,117.5v-3h4v3H91.5z M100.5,117.5h-4 v-3h4V117.5z M100.5,113.5h-4v-3h4V113.5z M100.5,109.5h-4v-3h4V109.5z"/></g></svg>